PathFileType	4	(X/Y/Z)	OpenSim_Sub03_CSBaseline_Gyro.trc
DataRate	CameraRate	NumFrames	NumMarkers	Units	OrigDataRate	OrigDataStartFrame	OrigNumFrames
100	100	20	8	m	100	4645	9288
Frame#	Time	torso_imu_offset_imu	pelvis_imu_offset_imu	tibia_r_imu_offset_imu	femur_r_imu_offset_imu	tibia_l_imu_offset_imu	femur_l_imu_offset_imu	toes_r_imu_offset_imu	toes_l_imu_offset_imu
				X1	Y1	Z1	X2	Y2	Z2	X3	Y3	Z3	X4	Y4	Z4	X5	Y5	Z5	X6	Y6	Z6	X7	Y7	Z7	X8		Y8	Z8	

4645	46.44000000	0.00445627	0.11349149	-0.06833008	0.28905762	-0.15655257	0.14896542	1.07792112	0.88147485	1.99297849	0.84220345	-0.51574497	-0.74422886	0.33174438	0.16245274	1.28253553	0.10457826	0.10705169	0.39581584	0.45440083	1.07467893	0.46314353	-0.18125611	-1.02223384	0.37362799
4646	46.45000000	0.02740850	0.13087581	-0.07071137	0.29292719	-0.17514019	0.17570753	0.84266590	0.65710237	1.62297813	0.82721410	-0.41083488	-0.60524094	0.33788905	0.18704050	1.37183419	0.12858877	0.14979846	0.33656028	0.41177110	0.54474420	0.10373637	-0.15422024	-1.14911032	0.36397591
4647	46.46000000	0.04669132	0.15191655	-0.07556586	0.28359569	-0.20907487	0.19505244	0.51565273	0.44913929	1.20181268	0.79123580	-0.30468153	-0.45503425	0.30967247	0.21279409	1.44179492	0.18375950	0.19743261	0.27312830	0.36044130	0.11721977	-0.16951235	-0.13743265	-1.30913581	0.35242317
4648	46.47000000	0.07467024	0.18160151	-0.09023064	0.28162205	-0.25339561	0.20963265	0.29173325	0.24219599	0.75900341	0.65098151	-0.21635358	-0.30835091	0.31470529	0.23288646	1.48648589	0.21670004	0.23238959	0.21246980	0.29825587	-0.18133129	-0.42395684	-0.13818576	-1.48651100	0.35048476
4649	46.48000000	0.09160962	0.20729624	-0.08910380	0.28632179	-0.28951863	0.20754684	0.18080592	0.03582986	0.22233087	0.36534926	-0.15359727	-0.18258965	0.28714186	0.22126280	1.57957834	0.21442073	0.26969807	0.14560918	0.28188313	-0.71544592	-0.84614487	-0.10037770	-1.66701213	0.34650678
4650	46.49000000	0.10750410	0.23009865	-0.09843116	0.29235777	-0.30921575	0.20648351	0.12781759	-0.19123755	-0.38453901	0.02023918	-0.13094319	-0.07099456	0.30940875	0.24195198	1.71090385	0.19308027	0.32259086	0.09482636	0.42248091	-1.47712001	-1.52100942	-0.07878541	-1.87966011	0.36456163
4651	46.50000000	0.13599965	0.25791450	-0.10765038	0.30861475	-0.32992676	0.19915014	0.07575522	-0.45457310	-0.85725335	-0.25891390	-0.16640767	-0.02565562	0.38555322	0.25565132	1.78927459	0.18372689	0.37233356	0.01946418	-0.04848467	-2.18198304	-2.12842296	-0.05468762	-2.10050176	0.39091970
4652	46.51000000	0.15393605	0.29258402	-0.10526406	0.33964463	-0.33780654	0.18848304	0.22710385	-0.73111449	-1.37365632	-0.49553904	-0.26923973	-0.06540102	0.44873062	0.25814374	1.85511398	0.15901739	0.41056495	-0.05624134	-0.68850954	-2.06926343	-2.02131679	-0.02415080	-2.35531275	0.41304450
4653	46.52000000	0.18917249	0.30926035	-0.12248962	0.34973416	-0.31302877	0.18695295	0.19542810	-0.97382733	-1.74321628	-0.80464621	-0.41112475	-0.19416831	0.49031235	0.27372875	1.96563503	0.12244884	0.45289923	-0.11884422	0.56645572	-1.48702567	-1.79593569	-0.00311728	-2.63040666	0.44900139
4654	46.53000000	0.20934528	0.28743303	-0.13468745	0.29754363	-0.28875273	0.20861656	-0.64934460	-1.06273463	-1.38506866	-1.09661125	-0.45002886	-0.26424267	0.43460000	0.28599587	2.10901311	0.06495794	0.50045423	-0.21045212	1.61711224	-2.02280096	-1.82019198	0.01351141	-2.92097255	0.50042303
4655	46.54000000	0.23218084	0.26554121	-0.13577053	0.15404535	-0.31775958	0.27464659	-0.85800706	-0.99987480	-0.84570539	-1.32538019	-0.43978140	-0.11451923	0.44975239	0.30735817	2.21132941	-0.02947502	0.53855402	-0.34086270	1.86167852	-1.85840384	-1.41127462	0.09165706	-3.21884266	0.57392343
4656	46.55000000	0.24695551	0.27004966	-0.11938723	0.00187984	-0.39743993	0.38211410	0.88786134	-0.69918346	-1.00237028	-1.58948020	-0.55989100	0.05033451	0.60919683	0.29897305	2.26773471	-0.11326588	0.54530718	-0.49330152	2.04387540	-1.11048160	-1.04060608	0.15852702	-3.52165967	0.74915457
4657	46.56000000	0.24760219	0.29278582	-0.11217852	-0.05713978	-0.46971414	0.49500853	2.34897701	-0.59152989	-1.35785799	-1.86960625	-0.77638921	0.29107337	0.85572592	0.25889837	2.33373094	-0.13813593	0.55613210	-0.64236781	1.20217611	-0.75469846	-0.92490326	0.12222318	-3.89689328	1.00786206
4658	46.57000000	0.24900935	0.31652743	-0.10870483	0.01686148	-0.50392086	0.53652299	2.40567311	-0.76164733	-1.54258762	-1.41065404	-0.86963097	0.27359846	1.18497956	0.21619070	2.43580654	-0.14454540	0.59611296	-0.82869036	0.59223865	-0.50469370	-0.70743366	0.01675055	-4.43503250	1.34000699
4659	46.58000000	0.24073914	0.33308447	-0.09189664	0.19003790	-0.52950765	0.48915454	1.73512298	-0.75027550	-1.56195852	-0.14145436	-0.73429454	-0.16990466	1.58069884	0.24970915	2.52419975	-0.11409975	0.70589137	-1.04930942	0.48830378	-0.31902145	-0.41322518	-0.38923781	-5.16161911	1.71679364
4660	46.59000000	0.24110778	0.34495671	-0.09159317	0.33488362	-0.52234885	0.38792595	0.85865048	-0.74331540	-1.40108550	0.71476202	-0.48530235	-0.63294974	1.76161040	0.25665861	2.55568127	0.01310447	0.83018650	-1.27939336	0.44525937	-0.22658070	-0.24453122	-0.84248254	-5.88044330	2.00790580
4661	46.60000000	0.25294475	0.35662373	-0.07508709	0.44790477	-0.44716788	0.27921849	0.76624495	-0.75211031	-1.35680389	0.98225663	-0.25212483	-0.91691692	1.73549441	0.11084837	2.54613380	0.35930713	0.87896789	-1.49130507	0.38082021	-0.13361991	-0.17869917	-0.84555833	-6.20283913	2.13510297
4662	46.61000000	0.29378030	0.37932394	-0.05842566	0.55241288	-0.31283436	0.22340354	0.89285505	-0.68597862	-1.20316331	1.01156775	-0.27896849	-1.11535927	1.60366271	-0.01742036	2.55809286	0.71016110	0.97032335	-1.68092010	0.31729174	-0.02390754	-0.09888316	-0.54306928	-6.25417631	2.21716865
4663	46.62000000	0.35460120	0.39854984	-0.05669152	0.63976391	-0.16263179	0.28604228	0.71581499	-0.61256808	-0.95492487	0.73427913	-0.43456866	-1.21112249	1.37814877	-0.11395383	2.58743104	0.83170530	1.06856252	-1.86926401	0.25595577	0.06320383	-0.03091375	-0.06559972	-6.06522169	2.22965750
4664	46.63000000	0.41473866	0.38204525	-0.05481143	0.70832360	-0.01156739	0.44537283	0.55072952	-0.58488390	-0.91440659	0.69357334	-0.39497854	-1.38754108	1.20010834	-0.20286777	2.54078822	0.86006540	1.07332178	-2.02719375	0.20371065	0.09089381	0.00634656	-0.00652434	-5.62881870	2.29543427
